<svg width="18" height="18" viewBox="0 0 18 18" fill="none" xmlns="http://www.w3.org/2000/svg">
<path d="M10.3892 16.8785C11.4238 16.696 12.4124 16.3116 13.2984 15.7471C14.1844 15.1827 14.9506 14.4492 15.5532 13.5886C16.1558 12.728 16.583 11.7572 16.8104 10.7315C17.0378 9.70584 17.0609 8.64543 16.8785 7.61081C16.696 6.5762 16.3116 5.58765 15.7471 4.7016C15.1827 3.81556 14.4492 3.04937 13.5886 2.44678C12.728 1.8442 11.7572 1.41702 10.7315 1.18963C9.70584 0.962246 8.64543 0.939108 7.61081 1.12154C6.5762 1.30397 5.58765 1.6884 4.7016 2.25287C3.81556 2.81734 3.04937 3.55081 2.44678 4.41139C1.8442 5.27197 1.41702 6.24281 1.18963 7.26848C0.962246 8.29416 0.939108 9.35457 1.12154 10.3892C1.30397 11.4238 1.6884 12.4124 2.25287 13.2984C2.81734 14.1844 3.55081 14.9506 4.41139 15.5532C5.27197 16.1558 6.24281 16.583 7.26849 16.8104C8.29416 17.0378 9.35457 17.0609 10.3892 16.8785L10.3892 16.8785Z" stroke="#969696" stroke-width="1.7"/>
<path d="M9 9L9 13.8" stroke="#969696" stroke-width="1.7" stroke-linecap="square"/>
<path d="M9 5L9 4.2" stroke="#969696" stroke-width="1.7" stroke-linecap="square"/>
</svg>
