<svg width="12" height="13" viewBox="0 0 12 13" fill="none" xmlns="http://www.w3.org/2000/svg">
<path d="M6.34685 9.59694L6.05697 9.07161L6.05697 9.07161L6.34685 9.59694ZM5.55334 9.59694L5.84323 9.07161H5.84323L5.55334 9.59694ZM9.2001 4.85C9.2001 5.93862 8.68178 6.85065 8.00286 7.58043C7.32286 8.31138 6.52022 8.81598 6.05697 9.07161L6.63674 10.1223C7.15664 9.83537 8.08063 9.25861 8.88146 8.39778C9.68337 7.53579 10.4001 6.34561 10.4001 4.85H9.2001ZM5.9501 1.6C7.74502 1.6 9.2001 3.05507 9.2001 4.85H10.4001C10.4001 2.39233 8.40776 0.4 5.9501 0.4V1.6ZM2.7001 4.85C2.7001 3.05507 4.15517 1.6 5.9501 1.6V0.4C3.49243 0.4 1.5001 2.39233 1.5001 4.85H2.7001ZM5.84323 9.07161C5.37997 8.81598 4.57734 8.31138 3.89733 7.58043C3.21842 6.85065 2.7001 5.93862 2.7001 4.85H1.5001C1.5001 6.34561 2.21682 7.53579 3.01874 8.39778C3.81957 9.25861 4.74356 9.83537 5.26346 10.1223L5.84323 9.07161ZM6.05697 9.07161C5.988 9.10967 5.9122 9.10967 5.84323 9.07161L5.26346 10.1223C5.69329 10.3595 6.2069 10.3595 6.63674 10.1223L6.05697 9.07161ZM7.0001 4.85C7.0001 5.4299 6.53 5.9 5.9501 5.9V7.1C7.19274 7.1 8.2001 6.09264 8.2001 4.85H7.0001ZM5.9501 3.8C6.53 3.8 7.0001 4.2701 7.0001 4.85H8.2001C8.2001 3.60736 7.19274 2.6 5.9501 2.6V3.8ZM4.9001 4.85C4.9001 4.2701 5.3702 3.8 5.9501 3.8V2.6C4.70746 2.6 3.7001 3.60736 3.7001 4.85H4.9001ZM5.9501 5.9C5.3702 5.9 4.9001 5.4299 4.9001 4.85H3.7001C3.7001 6.09264 4.70746 7.1 5.9501 7.1V5.9Z" fill="#119283"/>
<path d="M10.3301 9.75C10.769 9.97803 11 10.2367 11 10.5C11 10.7633 10.769 11.022 10.3301 11.25C9.89129 11.478 9.2601 11.6674 8.5 11.799C7.7399 11.9307 6.87768 12 6 12C5.12232 12 4.2601 11.9307 3.5 11.799C2.7399 11.6674 2.10872 11.478 1.66987 11.25C1.23103 11.022 1 10.7633 1 10.5C1 10.2367 1.23103 9.97803 1.66987 9.75" stroke="#119283" stroke-width="1.2" stroke-linecap="round"/>
</svg>
